<svg data-name="Miniatura de camiseta" xmlns="http://www.w3.org/2000/svg" viewBox="0 0 536.45 536.44" fill="#C1C9F5"><circle class="cls-1" cx="268.22" cy="268.22" r="100"/><path class="cls-1" d="M429.89,237.67" transform="translate(-31.78 -31.78)"/><path class="cls-1" d="M429.89,137.22" transform="translate(-31.78 -31.78)"/><path class="cls-1" d="M429.89,200" transform="translate(-31.78 -31.78)"/><path class="cls-1" d="M451.22,137.22" transform="translate(-31.78 -31.78)"/><path class="cls-1" d="M450,300H568.22s-18-42.44-59.11-42.22S450,300,450,300Z" transform="translate(-31.78 -31.78)"/><path class="cls-1" d="M150,300H31.78s18,42.44,59.11,42.22S150,300,150,300Z" transform="translate(-31.78 -31.78)"/><path class="cls-1" d="M300,150V31.78s-42.44,18-42.22,59.11S300,150,300,150Z" transform="translate(-31.78 -31.78)"/><path class="cls-1" d="M300,450V568.22s42.44-18,42.22-59.11S300,450,300,450Z" transform="translate(-31.78 -31.78)"/></svg>